<svg xmlns="http://www.w3.org/2000/svg" viewBox="0 0 361 361"><path fill="url(#a)" d="M0 0h361v361H0z"/><path fill="#fff" d="m255 55-10 2-107 21-7 3c-2 2-3 4-3 7l-1 4v134c0 3 0 6-2 8-2 3-5 4-8 4l-7 2-20 5-11 7c-6 7-9 15-8 23a28 28 0 0 0 22 24c6 1 11 1 19-1l13-4a31 31 0 0 0 15-22l1-13V143c0-6 2-8 7-9l93-19c6-1 9 1 9 7v79c0 3 0 6-3 9l-7 4-7 1-20 5c-5 2-9 5-12 8-6 6-8 14-7 22a28 28 0 0 0 22 25c5 1 11 0 19-1l12-5a31 31 0 0 0 16-21l1-14V64c0-6-4-9-9-9"/><defs><linearGradient id="a" x1="180" x2="180" y1="358.6" y2="7.8" gradientUnits="userSpaceOnUse"><stop offset="0" stop-color="#fa233b"/><stop offset="1" stop-color="#fb5c74"/></linearGradient></defs></svg>