<svg xmlns="http://www.w3.org/2000/svg" viewBox="0 0 48 48"><path fill="#2C1799" d="M0 0h48v48H0z"/><path fill="#fff" fill-rule="evenodd" d="M31 14.5H17a2.5 2.5 0 0 0-2.5 2.5v14c0 1.4 1.1 2.5 2.5 2.5h14c1.4 0 2.5-1.1 2.5-2.5V17c0-1.4-1.1-2.5-2.5-2.5M17 13a4 4 0 0 0-4 4v14a4 4 0 0 0 4 4h14a4 4 0 0 0 4-4V17a4 4 0 0 0-4-4z"/><path fill="#fff" d="M17 24c0-.6.4-1 1-1h12a1 1 0 1 1 0 2H18a1 1 0 0 1-1-1m0-4c0-.6.4-1 1-1h12a1 1 0 1 1 0 2H18a1 1 0 0 1-1-1m0 8c0-.6.4-1 1-1h4a1 1 0 1 1 0 2h-4a1 1 0 0 1-1-1"/></svg>