<svg xmlns="http://www.w3.org/2000/svg" viewBox="0 0 40 40"><path fill="#40C165" d="M0 0h40v40H0z"/><path d="M19.15 27.13a2.1 2.1 0 0 0-2.13-2.1 2.1 2.1 0 0 0-2.13 2.1c0 1.18.96 2.1 2.13 2.1a2.1 2.1 0 0 0 2.13-2.1m1.74-3.44v6.89H19.1v-.62c-.61.5-1.39.8-2.24.8-2.1 0-3.73-1.62-3.73-3.63 0-2 1.64-3.62 3.73-3.62.85 0 1.63.29 2.24.8v-.62h1.78Zm5.88 5.32h-1.34c-.4 0-.66-.17-.66-.54v-3.22h2v-1.56h-2v-1.96h-1.79v1.96h-1.34v1.56h1.34v3.66c0 .93.67 1.66 1.87 1.66h1.91v-1.56Zm4.03 1.74c2.05 0 3.2-.96 3.2-2.28 0-.94-.68-1.64-2.11-1.94l-1.51-.3c-.88-.16-1.16-.33-1.16-.64 0-.42.42-.67 1.2-.67.85 0 1.46.22 1.64.98h1.77c-.1-1.43-1.15-2.39-3.3-2.39-1.84 0-3.14.75-3.14 2.2 0 1 .72 1.66 2.26 1.98l1.68.38c.67.13.85.3.85.57 0 .44-.5.7-1.32.7-1.02 0-1.6-.22-1.83-.98h-1.79c.27 1.43 1.35 2.4 3.56 2.4ZM6 21.25h6.67v1.59H7.8v2.28h4.74v1.55H7.8v2.3h4.87v1.6H6zm28-8.07v-1.32h-.48c-.76 0-1.32.37-1.66.94v-.88h-1.37v7.16h1.38V15c0-1.11.65-1.83 1.55-1.83H34Zm-9.9 1.66c.25-1.1 1.1-1.83 2.12-1.83s1.89.73 2.12 1.83zm2.15-3.06a3.63 3.63 0 0 0-3.57 3.72c0 2.13 1.6 3.74 3.7 3.74a3.6 3.6 0 0 0 3-1.53l-1-.76a2.38 2.38 0 0 1-4.32-.98h5.67v-.46c0-2.14-1.47-3.73-3.48-3.73M18.38 18a2.44 2.44 0 0 1-2.4-2.48 2.43 2.43 0 0 1 2.4-2.49c1.3 0 2.38 1.1 2.38 2.49A2.43 2.43 0 0 1 18.38 18m-3.75 1.08h1.36v-.9a3.4 3.4 0 0 0 2.48 1.07 3.68 3.68 0 0 0 3.66-3.74c0-2.07-1.6-3.75-3.66-3.75-.97 0-1.84.41-2.47 1.07V9.25h-1.37zm-4.85-1.15c1.33 0 2.35-1.05 2.35-2.61V9.25h1.43v9.83h-1.42v-.91a3.4 3.4 0 0 1-2.53 1.08C7.57 19.25 6 17.72 6 15.4V9.25h1.44v6.07c0 1.59 1 2.61 2.34 2.61"/></svg>