<svg xmlns="http://www.w3.org/2000/svg" viewBox="0 0 40 40"><path fill="#5865F2" d="M0 0h40v40H0z"/><path fill="#fff" d="M28.7 12.7a20.2 20.2 0 0 0-5-1.5l-.7 1.3c-1.8-.3-3.7-.3-5.6 0a13 13 0 0 0-.7-1.4 20 20 0 0 0-5 1.6 20.7 20.7 0 0 0-3.6 14 20.3 20.3 0 0 0 6.2 3c.5-.6 1-1.2 1.3-2l-2-1v-.1a11 11 0 0 0 .5-.3 14.5 14.5 0 0 0 12.4 0l.4.3v.1l-2 1a16 16 0 0 0 1.3 2.1 20.2 20.2 0 0 0 6.2-3.1 20.5 20.5 0 0 0-3.7-14M16.2 23.9c-1.2 0-2.2-1.1-2.2-2.5s1-2.5 2.2-2.5 2.2 1.2 2.2 2.5c0 1.4-1 2.5-2.2 2.5m8.1 0c-1.2 0-2.2-1.1-2.2-2.5s1-2.5 2.2-2.5c1.3 0 2.2 1.2 2.2 2.5 0 1.4-1 2.5-2.2 2.5"/></svg>