<svg xmlns="http://www.w3.org/2000/svg" xmlns:xlink="http://www.w3.org/1999/xlink" viewBox="0 0 132 132"><rect width="100%" height="100%" fill="url(#a)"/><rect width="100%" height="100%" fill="url(#b)"/><path fill="#fff" d="M66.203 32.6c-9.125 0-10.27.04-13.855.203-3.577.164-6.018.73-8.155 1.561-2.21.858-4.084 2.006-5.952 3.875-1.869 1.867-3.017 3.742-3.878 5.95-.833 2.138-1.4 4.58-1.56 8.156-.161 3.584-.203 4.73-.203 13.855s.04 10.267.203 13.85c.165 3.578.73 6.02 1.561 8.156.859 2.21 2.007 4.084 3.875 5.952s3.742 3.02 5.95 3.878c2.138.83 4.58 1.397 8.157 1.561 3.584.163 4.728.203 13.853.203s10.267-.04 13.851-.203c3.577-.164 6.022-.73 8.16-1.561 2.209-.858 4.08-2.009 5.947-3.878 1.87-1.868 3.017-3.742 3.878-5.951.826-2.138 1.393-4.58 1.561-8.155.161-3.584.203-4.727.203-13.852s-.042-10.27-.203-13.854c-.168-3.577-.735-6.019-1.56-8.155-.862-2.21-2.01-4.085-3.879-5.953s-3.738-3.017-5.95-3.874c-2.142-.83-4.585-1.397-8.162-1.561-3.584-.163-4.725-.203-13.853-.203zm-3.014 6.055h3.014c8.971 0 10.034.032 13.577.193 3.276.15 5.054.697 6.238 1.157 1.568.61 2.686 1.337 3.862 2.513s1.904 2.296 2.514 3.864c.46 1.183 1.008 2.961 1.157 6.237.161 3.542.196 4.606.196 13.573s-.035 10.031-.196 13.573c-.15 3.276-.697 5.054-1.157 6.237-.609 1.568-1.338 2.685-2.514 3.86-1.176 1.176-2.293 1.904-3.862 2.513-1.183.462-2.962 1.008-6.238 1.158-3.542.16-4.606.196-13.577.196s-10.035-.035-13.577-.196c-3.276-.151-5.054-.699-6.24-1.159-1.568-.609-2.688-1.337-3.864-2.513S40.62 87.568 40.009 86c-.46-1.183-1.008-2.96-1.157-6.237-.161-3.542-.193-4.606-.193-13.578s.032-10.031.193-13.573c.15-3.276.697-5.054 1.157-6.239.61-1.568 1.338-2.688 2.514-3.864 1.177-1.176 2.297-1.904 3.865-2.514 1.184-.462 2.963-1.008 6.239-1.158 3.1-.14 4.3-.182 10.563-.19zm20.95 5.579a4.031 4.031 0 1 0-.002 8.066 4.031 4.031 0 0 0 .001-8.067zm-17.936 4.711c-9.53 0-17.255 7.726-17.255 17.255s7.726 17.252 17.255 17.252S83.455 75.729 83.455 66.2s-7.724-17.255-17.253-17.255zm0 6.055c6.185 0 11.2 5.014 11.2 11.2s-5.015 11.2-11.2 11.2c-6.186 0-11.2-5.015-11.2-11.2 0-6.186 5.014-11.2 11.2-11.2"/><defs><radialGradient xlink:href="#c" id="a" cx="158.429" cy="578" r="65" fx="158.429" fy="578.088" gradientTransform="matrix(0 -1.98198 1.8439 0 -1031.402 454.004)" gradientUnits="userSpaceOnUse"/><radialGradient xlink:href="#d" id="b" cx="147.694" cy="473" r="65" fx="147.694" fy="473.455" gradientTransform="matrix(.17394 .86872 -3.5818 .71718 1648.348 -458.493)" gradientUnits="userSpaceOnUse"/><linearGradient id="d"><stop offset="0" stop-color="#3771c8"/><stop offset=".128" stop-color="#3771c8"/><stop offset="1" stop-color="#60f" stop-opacity="0"/></linearGradient><linearGradient id="c"><stop offset="0" stop-color="#fd5"/><stop offset=".1" stop-color="#fd5"/><stop offset=".5" stop-color="#ff543e"/><stop offset="1" stop-color="#c837ab"/></linearGradient></defs></svg>