<svg xmlns="http://www.w3.org/2000/svg" viewBox="0 0 40 40"><path d="M0 0h40v40H0z"/><path fill="#fff" d="M16.78 30.83c-1.73 0-4.16-.5-6.6-2.69l1.92-2.12c3.4 3.07 6.96 1.86 8.05.83l.23-.21c-3.59-.35-6.22-2.9-6.4-3.07-2.75-2.71-3.37-6.39-1.42-8.37 1.96-1.98 5.64-1.44 8.4 1.27.23.23 2.91 2.86 3.44 6.19a6.35 6.35 0 0 0 .69-9.57 7 7 0 0 0-4.98-1.9V8.33c2.7 0 5.17.96 6.97 2.7a9.03 9.03 0 0 1 2.73 6.55 9.21 9.21 0 0 1-5.73 8.5 7.54 7.54 0 0 1-1.98 2.86 7.95 7.95 0 0 1-5.32 1.9Zm-1.2-13.99a1.32 1.32 0 0 0-.99.35c-.7.72-.25 2.73 1.4 4.35.02.02 2.6 2.52 5.64 2.26.01-2.7-2.63-5.24-2.66-5.27l-.02-.02c-.97-.96-2.35-1.67-3.37-1.67"/></svg>