<svg xmlns="http://www.w3.org/2000/svg" viewBox="0 0 48 48"><path fill="#E60022" d="M0 0h48v48H0z"/><path fill="#fff" d="M9 24a15 15 0 0 0 9 13.7c0-1 0-2.3.2-3.4l2-8.2s-.5-1-.5-2.4c0-2.2 1.3-3.8 2.9-3.8 1.3 0 2 1 2 2.2 0 1.4-.9 3.4-1.3 5.3-.4 1.6.8 3 2.4 3 2.8 0 4.7-3.7 4.7-8 0-3.3-2.2-5.8-6.2-5.8a7.1 7.1 0 0 0-7.4 7.2c0 1.3.4 2.2 1 3 .2.3.3.4.2.8l-.3 1.2c-.1.4-.4.5-.8.3-2-.8-3-3.1-3-5.7 0-4.2 3.5-9.4 10.7-9.4 5.7 0 9.5 4.2 9.5 8.6 0 6-3.3 10.3-8.1 10.3-1.6 0-3.2-.9-3.7-1.9l-1 4.2c-.4 1.1-1 2.3-1.6 3.2A15 15 0 1 0 9 24"/></svg>