<svg xmlns="http://www.w3.org/2000/svg" fill="#fff" viewBox="0 0 40 40"><path fill="url(#a)" d="M0 0h40v40H0z"/><path d="M18.9 33.5c-1.1-.4-1.3-.9-1.8-4-.5-3.5-.6-5.7-.3-6.4.4-1 1.5-1.5 3-1.5 1.4 0 2.5.6 3 1.5.2.7.1 2.9-.4 6.4-.4 2.5-.5 3.2-1 3.6-.7.6-1.6.7-2.5.4M14.3 30a12.5 12.5 0 0 1-3.7-20.1c2.4-2.6 5.6-4 9.2-4 3.5 0 6.7 1.4 9 3.9a12.4 12.4 0 0 1 3.5 10.9 12.8 12.8 0 0 1-8.4 9.8v-.6c0-1 .1-1.1.6-1.3a11.5 11.5 0 0 0 6-7.5c.4-1.2.4-4 0-5.3-1-4-4.4-7.2-8.4-8-1.2-.2-3.4-.2-4.5 0-4.1.8-7.5 4.1-8.6 8.3-.2 1.1-.2 3.9 0 5a11.5 11.5 0 0 0 6 7.5c.6.2.7.4.8 1.3l-.1.7zm0-5a9 9 0 0 1-2.8-4.4c-.3-1-.3-3 0-4.1.8-2.8 2.9-5 5.8-6 1-.4 3.1-.5 4.3-.2a8.5 8.5 0 0 1 2.8 15.3v-1.8l.6-.7a6.8 6.8 0 0 0-4-11.3h-2.2c-1.5.3-2.7.9-3.8 2a6.8 6.8 0 0 0-.4 9.3l.6.7v1.8l-.8-.5Zm4.2-4.8c-1-.5-1.6-1.5-1.7-2.7 0-1 .7-2 1.7-2.6.7-.4 1.9-.4 2.5 0 .8.4 1.4 1.1 1.6 1.9.7 2.4-1.8 4.4-4 3.4z"/><path d="M20 20.5a3 3 0 1 0 0-6 3 3 0 0 0 0 6m.3 1.2c.2 0 .6 0 1 .2l1 .5.5.6c.2.3.2.6.3 1l-.1 2.4a86 86 0 0 1-1 6.2 2 2 0 0 1-.6.8 2 2 0 0 1-.7.4h-1.4l-.9-.4a2 2 0 0 1-.6-1 106 106 0 0 1-1-8.9l.3-.6a2.2 2.2 0 0 1 1-.8l.8-.2.9-.2h.4Z"/><defs><linearGradient id="a" x1="20" x2="19.6" y1="40.5" y2="0" gradientUnits="userSpaceOnUse"><stop stop-color="#822CBE"/><stop offset="1" stop-color="#D772FB"/></linearGradient></defs></svg>