<svg xmlns="http://www.w3.org/2000/svg" viewBox="0 0 40 40"><path fill="#fff" d="M0 0h40v40H0z"/><path fill="#95BF47" d="M28.3 12.4a.3.3 0 0 0-.3-.2l-2-.2-1.5-1.4c0-.2-.4-.1-.5-.1l-.7.2c-.5-1.3-1.3-2.4-2.7-2.4-.5-.6-1-.8-1.4-.8-3.2 0-4.7 4-5.2 6.1l-2.3.7c-.7.2-.7.2-.8.9L9 29.8l14.3 2.7 7.7-1.7zM22.5 11l-1.2.3v-.2a5.9 5.9 0 0 0-.3-2c.7.1 1.2 1 1.5 1.9M20 9.3l.3 2.1v.2l-2.5.7c.5-1.8 1.4-2.7 2.2-3m-1-1 .4.2c-1 .5-2 1.7-2.5 4.2l-2 .6c.5-1.9 1.8-5 4.1-5"/><path fill="#5E8E3E" d="m28 12.2-2-.2-1.5-1.5a.3.3 0 0 0-.2 0l-1 22 7.7-1.7-2.7-18.4a.3.3 0 0 0-.3-.2"/><path fill="#fff" d="m20.6 16.4-1 2.9a4.4 4.4 0 0 0-1.8-.5c-1.5 0-1.6 1-1.6 1.2 0 1.3 3.4 1.8 3.4 4.8 0 2.4-1.5 4-3.5 4a5 5 0 0 1-3.7-1.6l.6-2.1s1.3 1 2.4 1a1 1 0 0 0 1-1c0-1.6-2.8-1.7-2.8-4.4 0-2.4 1.7-4.6 5-4.6 1.4 0 2 .3 2 .3"/></svg>