<svg xmlns="http://www.w3.org/2000/svg" viewBox="0 0 24 24"><path d="M0 0h24v24H0z"/><path fill="#25F4EE" d="M10.724 10.575v-.467a3.635 3.635 0 0 0-2.571 6.58 3.62 3.62 0 0 1-.977-2.477 3.64 3.64 0 0 1 3.548-3.636"/><path fill="#25F4EE" d="M10.812 15.872c.893 0 1.624-.713 1.656-1.6l.003-7.92h1.445a3 3 0 0 1-.045-.502h-1.974l-.002 7.92a1.66 1.66 0 0 1-1.657 1.6c-.277 0-.539-.07-.77-.192.298.419.789.694 1.344.694m5.807-6.832V8.6a2.7 2.7 0 0 1-1.497-.446c.384.44.904.76 1.497.886"/><path fill="#FE2C55" d="M15.123 8.154a2.73 2.73 0 0 1-.675-1.802h-.528a2.74 2.74 0 0 0 1.203 1.802m-4.887 3.892a1.662 1.662 0 0 0-.768 3.132 1.64 1.64 0 0 1-.315-.97c0-.915.744-1.66 1.659-1.66.17 0 .336.03.49.078v-2.019a4 4 0 0 0-.49-.034l-.085.002v1.549a1.7 1.7 0 0 0-.491-.078"/><path fill="#FE2C55" d="M16.619 9.04v1.535a4.7 4.7 0 0 1-2.748-.883v4.017a3.64 3.64 0 0 1-3.635 3.64 3.6 3.6 0 0 1-2.083-.66 3.63 3.63 0 0 0 2.659 1.161 3.64 3.64 0 0 0 3.636-3.639v-4.018a4.7 4.7 0 0 0 2.747.884V9.102q-.3-.001-.576-.062"/><path fill="#fff" d="M13.871 13.71V9.691a4.7 4.7 0 0 0 2.748.883V9.04a2.74 2.74 0 0 1-1.497-.886 2.76 2.76 0 0 1-1.205-1.802H12.47l-.003 7.92a1.66 1.66 0 0 1-1.656 1.6 1.67 1.67 0 0 1-1.347-.692 1.67 1.67 0 0 1-.891-1.47c0-.916.744-1.661 1.66-1.661.17 0 .335.03.49.077v-1.548a3.635 3.635 0 0 0-2.571 6.11 3.6 3.6 0 0 0 2.083.66 3.643 3.643 0 0 0 3.635-3.639"/></svg>